<?xml version="1.0" encoding="utf-8"?>
<!-- Generator: Adobe Illustrator 21.1.0, SVG Export Plug-In . SVG Version: 6.00 Build 0)  -->
<svg version="1.1" xmlns="http://www.w3.org/2000/svg" xmlns:xlink="http://www.w3.org/1999/xlink" x="0px" y="0px"
	 viewBox="0 0 225.5 157.1" style="enable-background:new 0 0 225.5 157.1;" xml:space="preserve">
<style type="text/css">
	.st0{fill:#231F20;}
	.st1{fill:#FF5000;}
	.st2{fill:#006DB6;}
</style>
<g id="Layer_1">
</g>
<g id="Layer_2">
	<g>
		<g>
			<g>
				<polygon class="st1" points="152.8,30.9 113.4,8.2 74,30.9 113.4,53.7 				"/>
				<polygon class="st2" points="71.8,80.2 111.2,103 111.2,57.5 71.8,34.7 				"/>
				<polygon class="st2" points="155,34.7 115.6,57.5 115.6,103 155,80.2 				"/>
			</g>
		</g>
		<g>
			<circle class="st2" cx="207.8" cy="56.6" r="4.2"/>
		</g>
		<g>
			<g>
				<path class="st1" d="M192.9,59h-0.3c-1.3,0-2.4-1.1-2.4-2.4s1.1-2.4,2.4-2.4h0.3c1.3,0,2.4,1.1,2.4,2.4S194.2,59,192.9,59z"/>
			</g>
			<g>
				<path class="st1" d="M180.6,59h-0.4c-1.3,0-2.4-1.1-2.4-2.4s1.1-2.4,2.4-2.4h0.4c1.3,0,2.4,1.1,2.4,2.4S181.9,59,180.6,59z"/>
			</g>
			<g>
				<path class="st1" d="M168.2,59h-0.3c-1.3,0-2.4-1.1-2.4-2.4s1.1-2.4,2.4-2.4h0.3c1.3,0,2.4,1.1,2.4,2.4S169.5,59,168.2,59z"/>
			</g>
		</g>
		<g>
			<circle class="st2" cx="17.7" cy="56.6" r="4.2"/>
		</g>
		<g>
			<g>
				<path class="st1" d="M32.9,59h-0.3c-1.3,0-2.4-1.1-2.4-2.4s1.1-2.4,2.4-2.4h0.3c1.3,0,2.4,1.1,2.4,2.4S34.2,59,32.9,59z"/>
			</g>
			<g>
				<path class="st1" d="M45.3,59h-0.4c-1.3,0-2.4-1.1-2.4-2.4s1.1-2.4,2.4-2.4h0.4c1.3,0,2.4,1.1,2.4,2.4S46.6,59,45.3,59z"/>
			</g>
			<g>
				<path class="st1" d="M57.6,59h-0.3c-1.3,0-2.4-1.1-2.4-2.4s1.1-2.4,2.4-2.4h0.3c1.3,0,2.4,1.1,2.4,2.4S58.9,59,57.6,59z"/>
			</g>
		</g>
	</g>
	<g>
		<g>
			<path class="st1" d="M49.6,132.5l-3.2,16.1h-7.5L42,133c0.1-0.4,0.1-0.9,0.1-1.3c0-1.7-1.2-2.5-2.2-2.5c-1.7,0-3.4,0.9-4,3.8
				l-3.1,15.7h-7.5l3.1-15.7c0.1-0.4,0.1-0.9,0.1-1.3c0-1.7-1.2-2.5-2.2-2.5c-1.7,0-3.4,0.9-4,3.8l-3.1,15.7h-7.5l5.2-25.9h7.2
				l-0.4,2.3c1.6-1.6,4.1-2.6,6.4-2.6c1.3,0,3.7,0.5,5.1,2.8c1.6-1.4,3.6-2.8,7.6-2.8c3.2,0,7.2,2.1,7.2,7.1
				C49.9,130.8,49.7,131.8,49.6,132.5z"/>
			<path class="st1" d="M75.3,132.3L72,148.6h-7.2l0.4-2.1c-1.2,1.2-3,2.4-5.6,2.4c-4.7,0-7.2-3.6-7.2-7.1c0-2.7,0.9-4.8,2.3-6.2
				c1.8-1.8,4.6-2.6,7.6-2.6h5.4l0.2-0.9c0.1-0.4,0.1-0.7,0.1-1.1c0-1.3-0.8-2.3-3.1-2.3c-2.2,0-3.9,1-4.8,2.1l-3.8-5
				c2-1.9,4.7-3.3,9.8-3.3c4.7,0,9.5,2,9.5,7.5C75.6,130.7,75.4,131.6,75.3,132.3z M63,138c-2.2,0-3.2,1.5-3.2,2.9
				c0,1.1,0.8,1.9,2.3,1.9c1.4,0,2.5-0.6,3.2-1.3c0.7-0.7,1.1-1.7,1.3-2.8l0.1-0.7H63z"/>
			<path class="st1" d="M93.7,129.6h-3.9l-2.2,10.9c0,0.2,0,0.3,0,0.6c0,0.9,0.6,1.2,1.5,1.2h2.4l-1.3,6.3h-3.5
				c-4.3,0-6.7-2.6-6.7-6c0-1,0.1-1.6,0.2-2.1l2.2-10.9h-2.3l1.2-5.8h2.3l1.5-7.5h7.5l-1.5,7.5h3.9L93.7,129.6z"/>
			<path class="st1" d="M112.3,130.9c-0.8-1-1.6-1.7-2.7-1.7c-1,0-1.9,0.4-2.6,1.2c-1.1,1.1-1.9,2.9-2.3,5.3c-0.2,1-0.3,2-0.3,3
				c0,1.9,0.5,3.4,2.6,3.4c1.3,0,2.5-0.6,3.6-1.7l4.1,5.4c-2.1,1.8-5.1,3.1-8.5,3.1c-4.3,0-9.3-2.6-9.3-9.2c0-1.3,0.1-2.7,0.4-4
				c2.1-11.6,8.6-13.3,13.2-13.3c3.9,0,6.2,1.6,7.7,3.5L112.3,130.9z"/>
			<path class="st1" d="M142.5,132.5l-3.2,16.1h-7.5l3.1-15.7c0.1-0.4,0.1-0.9,0.1-1.3c0-1.7-1.2-2.5-2.2-2.5c-1.7,0-3.4,0.9-4,3.8
				l-3.1,15.7h-7.5l6.8-34.3h7.5l-2,10.1c1.6-1.3,3.7-2,5.8-2c2.7,0,6.5,1.7,6.5,7.1C142.8,130.6,142.7,131.7,142.5,132.5z"/>
		</g>
		<path class="st2" d="M166.3,137c-0.8,4-1.9,7.2-4.1,9.4c-1.8,1.8-4.1,2.5-6.3,2.5c-2.2,0-4.8-0.7-6-3.5l-0.7,3.2h-2.4l6.8-34.3
			h2.4l-2.8,14c1-1.3,2.7-3.2,6.7-3.2c4.6,0,6.8,2.8,6.8,7.6C166.7,133.6,166.6,135.3,166.3,137z M159.7,127.1
			c-5.3,0-7.2,4.9-8.2,9.9c-0.3,1.5-0.5,3-0.5,4.3c0,3.2,1.2,5.6,4.8,5.6c5.3,0,7.2-4.9,8.2-9.9c0.3-1.5,0.5-3,0.5-4.3
			C164.4,129.6,163.3,127.1,159.7,127.1z"/>
		<path class="st2" d="M189.8,137c-1,5.2-2.6,7.9-4.5,9.4c-2,1.8-4.1,2.5-6.4,2.5c-3.6,0-7.3-2-7.3-7.6c0-1.4,0.2-3.3,0.4-4.3
			c1-5.2,2.6-7.9,4.5-9.4c2-1.8,4.1-2.5,6.4-2.5c3.6,0,7.3,2,7.3,7.6C190.3,134.1,190,136,189.8,137z M182.8,127.1
			c-1.8,0-3.7,0.8-4.9,2.1c-1.5,1.5-2.6,3.6-3.5,7.8c-0.3,1.5-0.5,3.1-0.5,4.2c0,4.1,2.5,5.7,5.2,5.7c1.8,0,3.7-0.8,4.9-2.1
			c1.5-1.5,2.6-3.6,3.5-7.8c0.3-1.5,0.5-3.1,0.5-4.2C187.9,128.7,185.4,127.1,182.8,127.1z"/>
		<path class="st2" d="M204.5,136.9l5.3,11.8h-2.7l-4.2-10.1l-7.9,10.1H192l9.7-12.1l-5.1-11.1h2.7l4,9.5l7.4-9.5h2.9L204.5,136.9z"
			/>
	</g>
</g>
</svg>
